<svg width="76" height="76" viewBox="0 0 76 76" fill="none" xmlns="http://www.w3.org/2000/svg">
<circle cx="38" cy="38" r="38" fill="white"/>
<path d="M57.3156 36.3917H53.9316C55.3384 33.1977 55.1863 30.6122 54.654 28.8631C53.7414 25.7453 50.6616 22.3612 46.0989 22.3612C44.8821 22.3612 43.6654 22.5894 42.4106 23.0456C40.2433 23.8441 38.7985 24.7187 38.1521 25.1749C37.5057 24.7187 36.0989 23.8441 33.8935 23.0456C32.6388 22.5894 31.384 22.3612 30.2053 22.3612C25.6426 22.3612 22.5627 25.7453 21.6502 28.8631C21.1179 30.7263 20.9278 33.5399 22.7148 37.0761H18.6084C18.2662 37.0761 18 37.3422 18 37.6844C18 38.0266 18.2662 38.2928 18.6084 38.2928H23.4373C23.6274 38.635 23.8555 38.9772 24.1217 39.3194C28.076 45.0228 36.6692 51.2206 38.2281 51.6008V51.6388C38.2281 51.6388 38.2662 51.6388 38.3042 51.6008C38.3422 51.6008 38.3802 51.6008 38.4183 51.6008V51.5628C39.7491 50.9164 48 45.5932 52.3346 39.2814C52.7529 38.711 53.0951 38.1407 53.3992 37.5704H57.3916C57.7338 37.5704 58 37.3042 58 36.962C58 36.6198 57.6578 36.3917 57.3156 36.3917ZM51.2319 38.635C47.2015 44.5285 39.7871 49.2814 38.1901 50.308C36.5551 49.2814 29.1787 44.4905 25.1103 38.635C25.0342 38.5209 24.9582 38.4069 24.8821 38.2928H30.4715C30.6996 38.2928 30.9278 38.1787 31.0418 37.9506L33.5894 32.9316L37.5818 43.1597C37.6578 43.3879 37.924 43.5399 38.1521 43.5399C38.1521 43.5399 38.1521 43.5399 38.1901 43.5399C38.4563 43.5399 38.6844 43.3498 38.7605 43.0837L42.2586 31.1065L44.1217 37.1521C44.1977 37.3802 44.3878 37.5323 44.616 37.5704C44.8441 37.6084 45.0722 37.4943 45.2243 37.3042L46.7072 35.1369L47.962 37.2662C48.076 37.4563 48.2662 37.5704 48.4943 37.5704H51.9164C51.6882 37.9506 51.4601 38.2928 51.2319 38.635ZM52.6008 36.3917H48.8745L47.3156 33.7301C47.2015 33.5399 47.0114 33.4259 46.7833 33.4259C46.5551 33.4259 46.365 33.5019 46.251 33.692L44.9582 35.5932L42.8669 28.7871C42.7909 28.5209 42.5247 28.3688 42.2586 28.3308C41.9924 28.3308 41.7262 28.5209 41.6502 28.7871L38.1141 40.9924L34.2738 31.1825C34.1977 30.9544 33.9696 30.8023 33.7414 30.8023C33.4753 30.8023 33.2852 30.9164 33.1711 31.1445L30.1673 37.038H24.1217C22.6008 34.2624 22.1825 31.6008 22.8669 29.2053C23.6654 26.5057 26.289 23.616 30.2433 23.616C31.308 23.616 32.4106 23.8441 33.5133 24.2244C36.289 25.251 37.7719 26.4297 37.8099 26.4297C38.038 26.6198 38.3422 26.6198 38.5703 26.4297C38.5703 26.4297 40.0532 25.251 42.8669 24.2244C43.9696 23.8061 45.0722 23.616 46.1369 23.616C50.0532 23.616 52.7148 26.5057 53.5133 29.2053C54.1597 31.4107 53.8175 33.8441 52.6008 36.3917Z" fill="black"/>
</svg>
