<svg width="76" height="76" viewBox="0 0 76 76" fill="none" xmlns="http://www.w3.org/2000/svg">
<circle cx="38" cy="38" r="38" fill="white"/>
<path d="M41.3333 20H34.6666C34.2987 20 34 20.2987 34 20.6666C34 21.0346 34.2987 21.3333 34.6666 21.3333H41.3333C41.7013 21.3333 41.9999 21.0346 41.9999 20.6666C41.9999 20.2987 41.7013 20 41.3333 20Z" fill="black"/>
<path d="M46 20H45.3334C44.9654 20 44.6667 20.2987 44.6667 20.6666C44.6667 21.0346 44.9654 21.3333 45.3334 21.3333H46C46.368 21.3333 46.6667 21.0346 46.6667 20.6666C46.6667 20.2987 46.368 20 46 20Z" fill="black"/>
<path d="M38.828 52H37.1727C36.1587 52 35.3334 52.8253 35.3334 53.8393V54.1613C35.3334 55.1753 36.1587 56 37.172 56H38.8274C39.8413 56 40.6667 55.1753 40.6667 54.1613V53.8393C40.6667 52.8253 39.8413 52 38.828 52ZM39.3334 54.1613C39.3334 54.44 39.1067 54.6666 38.8281 54.6666H37.1727C36.8934 54.6666 36.6667 54.44 36.6667 54.1613V53.8393C36.6667 53.56 36.8933 53.3333 37.1727 53.3333H38.8274C39.1067 53.3333 39.3334 53.5599 39.3334 53.8393V54.1613V54.1613Z" fill="black"/>
<path d="M46.9238 18H29.0765C27.7478 18 26.6665 19.0813 26.6665 20.41V55.59C26.6665 56.9187 27.7478 58 29.0765 58H46.9231C48.2518 58 49.3331 56.9187 49.3331 55.5907V20.41C49.3332 19.0813 48.2519 18 46.9238 18ZM47.9999 55.59C47.9999 56.1834 47.5172 56.6666 46.9238 56.6666H29.0765C28.4825 56.6666 27.9999 56.1833 27.9999 55.5906V20.41C27.9999 19.8166 28.4825 19.3334 29.0765 19.3334H46.9231C47.5171 19.3334 47.9998 19.8167 47.9998 20.41V55.59H47.9999Z" fill="black"/>
<path d="M48.6665 22H27.3333C26.9653 22 26.6666 22.2987 26.6666 22.6666V50.6667C26.6666 51.0346 26.9653 51.3333 27.3333 51.3333H48.6666C49.0346 51.3333 49.3333 51.0346 49.3333 50.6667V22.6666C49.3333 22.2987 49.0346 22 48.6665 22ZM47.9999 50H27.9999V23.3334H47.9999V50Z" fill="black"/>
</svg>
