<svg width="76" height="76" viewBox="0 0 76 76" fill="none" xmlns="http://www.w3.org/2000/svg">
<circle cx="38" cy="38" r="38" fill="white"/>
<g clip-path="url(#clip0)">
<path d="M40.7387 32.9695C40.8567 33.2002 41.0913 33.3334 41.334 33.3334C41.4353 33.3334 41.5393 33.3101 41.636 33.2608C41.6753 33.2408 45.5994 31.2474 47.5347 30.6361C47.8854 30.5248 48.08 30.1501 47.9686 29.7995C47.8579 29.4488 47.486 29.2535 47.132 29.3642C45.0933 30.0089 41.196 31.9888 41.0307 32.0728C40.7027 32.2395 40.5721 32.6409 40.7387 32.9695Z" fill="black"/>
<path d="M41.3342 25.3336C41.4356 25.3336 41.5395 25.3102 41.6363 25.2609C41.6756 25.2409 45.5996 23.2476 47.5349 22.6362C47.8856 22.5249 48.0802 22.1502 47.9689 21.7996C47.8582 21.4489 47.4862 21.2536 47.1322 21.3643C45.0936 22.009 41.1963 23.989 41.0309 24.073C40.703 24.2396 40.5723 24.6409 40.7389 24.9696C40.8569 25.2002 41.0916 25.3336 41.3342 25.3336Z" fill="black"/>
<path d="M57.3333 24.0002C56.9646 24.0002 56.6667 24.2988 56.6667 24.6668V50.6666C56.6667 51.7693 55.7693 52.6666 54.6667 52.6666H38.6668V51.1326C39.6388 50.7926 42.1708 50 44.6668 50C50.4741 50 54.4174 51.286 54.4567 51.2993C54.6573 51.3659 54.8814 51.3326 55.0567 51.2072C55.2307 51.0819 55.3333 50.8806 55.3333 50.6665V21.3336C55.3333 21.0209 55.1167 20.7502 54.8113 20.6829C54.8113 20.6829 54.2886 20.5662 53.3953 20.4022C53.0346 20.3355 52.686 20.5755 52.6193 20.9368C52.5526 21.2995 52.7919 21.6468 53.154 21.7135C53.4947 21.7761 53.78 21.8314 54 21.8755V49.7806C52.4893 49.3846 49.1347 48.6666 44.6667 48.6666C41.762 48.6666 38.9088 49.6206 38.026 49.944C37.2413 49.5973 34.8694 48.6666 32.0001 48.6666C27.4081 48.6666 23.6254 49.424 22.0001 49.8086V21.8495C23.3315 21.5221 27.2635 20.6668 32.0001 20.6668C34.4307 20.6668 36.5153 21.4235 37.3334 21.7655V48C37.3334 48.24 37.4627 48.462 37.6713 48.58C37.88 48.6987 38.1374 48.6953 38.3434 48.5713C38.4094 48.532 45.0146 44.5867 50.8773 42.6327C51.1499 42.5414 51.3333 42.2874 51.3333 42V14.6669C51.3333 14.4482 51.2259 14.2435 51.0459 14.1189C50.8673 13.9942 50.638 13.9656 50.4319 14.0423C45.098 16.0429 39.7008 19.4015 39.6467 19.4349C39.3347 19.6302 39.2394 20.0415 39.4347 20.3536C39.6294 20.6656 40.0407 20.7609 40.3533 20.5656C40.4026 20.5343 45.098 17.613 49.9999 15.6416V41.5228C45.4492 43.1041 40.698 45.6861 38.6666 46.842V21.3336C38.6666 21.0809 38.524 20.8502 38.298 20.7369C38.1833 20.6803 35.4514 19.3336 32.0001 19.3336C25.9761 19.3336 21.3448 20.6369 21.1501 20.6929C20.8641 20.7742 20.6668 21.0362 20.6668 21.3336V50.6667C20.6668 50.8754 20.7655 51.0727 20.9315 51.1987C21.0488 51.2874 21.1901 51.3334 21.3335 51.3334C21.3948 51.3334 21.4562 51.3247 21.5162 51.3074C21.5622 51.2947 26.1721 50 32.0001 50C34.4374 50 36.52 50.7587 37.3334 51.0993V52.6667H21.3335C20.2309 52.6667 19.3335 51.7693 19.3335 50.6667V24.6669C19.3335 24.2989 19.0348 24.0003 18.6669 24.0003C18.2989 24.0003 18.0002 24.2989 18.0002 24.6669V50.6667C18.0002 52.5046 19.4955 54 21.3336 54H54.6667C56.5046 54 58 52.5047 58 50.6667V24.6669C57.9999 24.2988 57.702 24.0002 57.3333 24.0002Z" fill="black"/>
<path d="M40.7387 28.9695C40.8567 29.2002 41.0913 29.3335 41.334 29.3335C41.4353 29.3335 41.5393 29.3101 41.636 29.2608C41.6753 29.2408 45.5994 27.2475 47.5347 26.6362C47.8854 26.5248 48.08 26.1501 47.9686 25.7995C47.8579 25.4488 47.486 25.2535 47.132 25.3642C45.0933 26.0089 41.196 27.9889 41.0307 28.0729C40.7027 28.2395 40.5721 28.6409 40.7387 28.9695Z" fill="black"/>
<path d="M40.7387 36.9694C40.8567 37.2001 41.0913 37.3334 41.334 37.3334C41.4353 37.3334 41.5393 37.3101 41.636 37.2608C41.6753 37.2408 45.5994 35.2474 47.5347 34.6361C47.8854 34.5248 48.08 34.1501 47.9686 33.7995C47.8579 33.4488 47.486 33.2535 47.132 33.3642C45.0933 34.0088 41.196 35.9888 41.0307 36.0728C40.7027 36.2394 40.5721 36.6408 40.7387 36.9694Z" fill="black"/>
<path d="M34.1522 26.3723C30.0356 25.4062 25.3576 26.6369 25.1609 26.6896C24.8056 26.7849 24.5943 27.1502 24.6896 27.5062C24.7696 27.8042 25.0389 28.0002 25.333 28.0002C25.3903 28.0002 25.4483 27.9929 25.5063 27.9776C25.551 27.9649 30.055 26.7802 33.8483 27.6702C34.2049 27.7536 34.5656 27.5315 34.6496 27.1729C34.7335 26.8149 34.5109 26.4562 34.1522 26.3723Z" fill="black"/>
<path d="M34.1522 30.3722C30.0356 29.4069 25.3576 30.6369 25.1609 30.6896C24.8056 30.7849 24.5943 31.1503 24.6896 31.5062C24.7696 31.8042 25.0389 32.0002 25.333 32.0002C25.3903 32.0002 25.4483 31.9928 25.5063 31.9775C25.551 31.9649 30.055 30.7802 33.8483 31.6702C34.2049 31.7535 34.5656 31.5315 34.6496 31.1728C34.7335 30.8149 34.5109 30.4562 34.1522 30.3722Z" fill="black"/>
<path d="M40.7387 40.9694C40.8567 41.2001 41.0913 41.3334 41.334 41.3334C41.4353 41.3334 41.5393 41.31 41.636 41.2607C41.6753 41.2407 45.5994 39.2474 47.5347 38.6361C47.8854 38.5247 48.08 38.15 47.9686 37.7994C47.8579 37.4488 47.486 37.2534 47.132 37.3641C45.0933 38.0088 41.196 39.9888 41.0307 40.0728C40.7027 40.2394 40.5721 40.6408 40.7387 40.9694Z" fill="black"/>
<path d="M34.1522 34.3722C30.0356 33.4069 25.3576 34.6362 25.1609 34.6895C24.8056 34.7848 24.5943 35.1502 24.6896 35.5062C24.7696 35.8041 25.0389 36.0008 25.333 36.0008C25.3903 36.0008 25.4483 35.9929 25.5063 35.9775C25.551 35.9648 30.055 34.7802 33.8483 35.6701C34.2049 35.7535 34.5656 35.5315 34.6496 35.1728C34.7335 34.8148 34.5109 34.4562 34.1522 34.3722Z" fill="black"/>
<path d="M34.1522 42.3721C30.0356 41.4061 25.3576 42.6368 25.1609 42.6895C24.8056 42.7848 24.5943 43.1502 24.6896 43.5061C24.7696 43.8041 25.0389 44.0008 25.333 44.0008C25.3903 44.0008 25.4483 43.9928 25.5063 43.9774C25.551 43.9648 30.055 42.7801 33.8483 43.6701C34.2049 43.7527 34.5656 43.5314 34.6496 43.1727C34.7335 42.8148 34.5109 42.4561 34.1522 42.3721Z" fill="black"/>
<path d="M34.1522 38.3722C30.0356 37.4062 25.3576 38.6361 25.1609 38.6895C24.8056 38.7848 24.5943 39.1502 24.6896 39.5061C24.7696 39.8041 25.0389 40.0008 25.333 40.0008C25.3903 40.0008 25.4483 39.9928 25.5063 39.9775C25.551 39.9648 30.055 38.7801 33.8483 39.6701C34.2049 39.7535 34.5656 39.5314 34.6496 39.1728C34.7335 38.8148 34.5109 38.4561 34.1522 38.3722Z" fill="black"/>
</g>
<defs>
<clipPath id="clip0">
<rect width="40" height="40" fill="white" transform="translate(18 14)"/>
</clipPath>
</defs>
</svg>
