<svg width="76" height="76" viewBox="0 0 76 76" fill="none" xmlns="http://www.w3.org/2000/svg">
<circle cx="38" cy="38" r="38" fill="white"/>
<path d="M26.8845 47.3687H26.122C25.0882 47.3687 24.247 48.21 24.247 49.2437V49.8687C24.247 50.2144 24.5263 50.4937 24.872 50.4937H37.3682C37.7138 50.4937 37.9932 50.2144 37.9932 49.8687V49.2437C37.9932 48.21 37.152 47.3687 36.1182 47.3687H35.3557L35.0438 46.1212H42.3632C43.397 46.1212 44.2382 45.28 44.2382 44.2462V27.3813C44.2382 26.3475 43.397 25.5063 42.3632 25.5063H19.877C18.8432 25.5063 18.002 26.3475 18.002 27.3813V44.2462C18.002 45.28 18.8432 46.1212 19.877 46.1212H27.1963L26.8845 47.3687ZM26.122 48.6187H36.1182C36.4632 48.6187 36.7432 48.8987 36.7432 49.2437H25.497C25.497 48.8987 25.777 48.6187 26.122 48.6187V48.6187ZM34.0682 47.3687H28.172L28.4838 46.1212H33.7563L34.0682 47.3687ZM19.877 26.7563H42.3638C42.7088 26.7563 42.9888 27.0363 42.9888 27.3813V42.3712H19.252V27.3813C19.252 27.0363 19.532 26.7563 19.877 26.7563ZM19.252 44.2462V43.6212H31.1326C30.7876 43.6212 30.5113 43.9006 30.5113 44.2462C30.5113 44.5919 30.7938 44.8712 31.1395 44.8712C31.4845 44.8712 31.7645 44.5919 31.7645 44.2462C31.7645 43.9006 31.4845 43.6212 31.1395 43.6212H42.9888V44.2462C42.9888 44.5912 42.7088 44.8712 42.3638 44.8712H31.1388H19.877C19.532 44.8712 19.252 44.5912 19.252 44.2462Z" fill="black"/>
<path d="M56.1232 25.5063H47.3726C46.3388 25.5063 45.4976 26.3475 45.4976 27.3813V48.6187C45.4976 49.6525 46.3388 50.4937 47.3726 50.4937H56.1232C57.1569 50.4937 57.9982 49.6525 57.9982 48.6187V27.3813C57.9982 26.3469 57.1569 25.5063 56.1232 25.5063V25.5063ZM46.7476 29.2538H56.7482V29.8775H46.7476V29.2538ZM47.3726 26.7563H56.1232C56.4682 26.7563 56.7482 27.0363 56.7482 27.3813V28.0038H46.7476V27.3813C46.7476 27.0363 47.0276 26.7563 47.3726 26.7563V26.7563ZM56.1232 49.2437H47.3726C47.0276 49.2437 46.7476 48.9637 46.7476 48.6187V31.1275H56.7482V48.6187C56.7482 48.9637 56.4682 49.2437 56.1232 49.2437Z" fill="black"/>
<path d="M51.748 38.6275C52.7818 38.6275 53.623 37.7863 53.623 36.7525C53.623 35.7188 52.7818 34.8775 51.748 34.8775C50.7143 34.8775 49.873 35.7188 49.873 36.7525C49.873 37.7863 50.7143 38.6275 51.748 38.6275ZM51.748 36.1275C52.093 36.1275 52.373 36.4075 52.373 36.7525C52.373 37.0975 52.093 37.3775 51.748 37.3775C51.403 37.3775 51.123 37.0975 51.123 36.7525C51.123 36.4075 51.403 36.1275 51.748 36.1275Z" fill="black"/>
<path d="M54.248 42.3788H49.248C48.9024 42.3788 48.623 42.6581 48.623 43.0038C48.623 43.3494 48.9024 43.6288 49.248 43.6288H54.248C54.5937 43.6288 54.873 43.3494 54.873 43.0038C54.873 42.6581 54.5937 42.3788 54.248 42.3788Z" fill="black"/>
<path d="M54.248 44.2538H49.248C48.9024 44.2538 48.623 44.5331 48.623 44.8788C48.623 45.2244 48.9024 45.5038 49.248 45.5038H54.248C54.5937 45.5038 54.873 45.2244 54.873 44.8788C54.873 44.5331 54.5937 44.2538 54.248 44.2538Z" fill="black"/>
<path d="M54.248 46.1288H49.248C48.9024 46.1288 48.623 46.4081 48.623 46.7538C48.623 47.0994 48.9024 47.3788 49.248 47.3788H54.248C54.5937 47.3788 54.873 47.0994 54.873 46.7538C54.873 46.4081 54.5937 46.1288 54.248 46.1288Z" fill="black"/>
</svg>
